<svg width="60" height="60" viewBox="0 0 60 60" fill="none" xmlns="http://www.w3.org/2000/svg">
<g id="&#240;&#159;&#166;&#134; icon &#34;linkedin&#34;">
<g id="Group">
<path id="Vector" d="M37.875 20.9996C35.9589 20.993 34.0603 21.3643 32.2878 22.0923C30.5153 22.8202 28.9038 23.8906 27.5454 25.242C26.187 26.5934 25.1085 28.1994 24.3714 29.9681C23.6343 31.7368 23.2533 33.6335 23.25 35.5496V50.2496C23.25 50.8463 23.4871 51.4186 23.909 51.8406C24.331 52.2625 24.9033 52.4996 25.5 52.4996H30.75C31.3467 52.4996 31.919 52.2625 32.341 51.8406C32.7629 51.4186 33 50.8463 33 50.2496V35.5496C32.9995 34.8681 33.1426 34.1942 33.4201 33.5717C33.6975 32.9492 34.103 32.3922 34.6102 31.937C35.1173 31.4817 35.7147 31.1384 36.3634 30.9296C37.0121 30.7207 37.6975 30.6508 38.375 30.7246C39.59 30.8776 40.7066 31.4713 41.513 32.3929C42.3195 33.3145 42.7596 34.5 42.75 35.7246V50.2496C42.75 50.8463 42.9871 51.4186 43.409 51.8406C43.831 52.2625 44.4033 52.4996 45 52.4996H50.25C50.8467 52.4996 51.419 52.2625 51.841 51.8406C52.263 51.4186 52.5 50.8463 52.5 50.2496V35.5496C52.4967 33.6335 52.1157 31.7368 51.3786 29.9681C50.6415 28.1994 49.563 26.5934 48.2046 25.242C46.8462 23.8906 45.2347 22.8202 43.4622 22.0923C41.6897 21.3643 39.7911 20.993 37.875 20.9996Z" fill="#FFB320"/>
<path id="Vector_2" d="M16.5 23.249H9.75C8.50736 23.249 7.5 24.2564 7.5 25.499V50.249C7.5 51.4917 8.50736 52.499 9.75 52.499H16.5C17.7426 52.499 18.75 51.4917 18.75 50.249V25.499C18.75 24.2564 17.7426 23.249 16.5 23.249Z" fill="#FFB320"/>
<path id="Vector_3" d="M13.125 18.75C16.2316 18.75 18.75 16.2316 18.75 13.125C18.75 10.0184 16.2316 7.5 13.125 7.5C10.0184 7.5 7.5 10.0184 7.5 13.125C7.5 16.2316 10.0184 18.75 13.125 18.75Z" fill="#FFB320"/>
</g>
</g>
</svg>
