<svg width="48" height="48" viewBox="0 0 48 48" fill="none" xmlns="http://www.w3.org/2000/svg">
<g id="&#240;&#159;&#166;&#134; icon &#34;instagram fill&#34;">
<path id="Vector" fill-rule="evenodd" clip-rule="evenodd" d="M14.1053 0.144C16.6653 0.0266618 17.4813 0 24 0C30.5199 0 31.3346 0.0279927 33.8932 0.144C36.4492 0.260007 38.1947 0.666676 39.7213 1.26C41.3225 1.86286 42.773 2.80743 43.9719 4.02801C45.1927 5.22676 46.1374 6.67737 46.74 8.27867C47.3332 9.80533 47.7386 11.5507 47.856 14.1053C47.9734 16.6653 48 17.4813 48 24C48 30.5186 47.9721 31.3346 47.856 33.8948C47.7399 36.4492 47.3332 38.1947 46.74 39.7213C46.1267 41.2988 45.3052 42.6386 43.9719 43.9719C42.7732 45.1927 41.3225 46.1374 39.7213 46.74C38.1947 47.3332 36.4492 47.7386 33.8948 47.856C31.3346 47.9734 30.5186 48 24 48C17.4813 48 16.6653 47.9721 14.1053 47.856C11.5507 47.7399 9.80533 47.3332 8.27867 46.74C6.70132 46.1267 5.36134 45.3052 4.02801 43.9719C2.80721 42.7732 1.86257 41.3225 1.26 39.7213C0.666676 38.1947 0.261338 36.4492 0.144 33.8948C0.0266618 31.3346 0 30.5199 0 24C0 17.48 0.0279927 16.6653 0.144 14.1067C0.260007 11.5507 0.666676 9.80533 1.26 8.27867C1.86286 6.67748 2.80743 5.22694 4.02801 4.02801C5.22674 2.80721 6.67735 1.86257 8.27867 1.26C9.80533 0.666676 11.5507 0.261338 14.1053 0.144ZM33.6986 4.464C31.1679 4.34932 30.408 4.32399 24 4.32399C17.592 4.32399 16.832 4.34932 14.3013 4.464C11.9613 4.57067 10.6907 4.96132 9.84532 5.29067C8.72533 5.72533 7.92532 6.24532 7.08532 7.08532C6.24668 7.92532 5.72533 8.72533 5.29067 9.84532C4.96132 10.6907 4.57067 11.9613 4.464 14.3013C4.34932 16.832 4.32399 17.592 4.32399 24C4.32399 30.408 4.34932 31.1679 4.464 33.6986C4.57067 36.0386 4.96132 37.3093 5.29067 38.1548C5.67515 39.1972 6.28841 40.1402 7.08532 40.9148C7.85965 41.7116 8.80279 42.3249 9.84532 42.7093C10.6907 43.0388 11.9613 43.4293 14.3013 43.536C16.832 43.6508 17.5907 43.6761 24 43.6761C30.4093 43.6761 31.1679 43.6508 33.6986 43.536C36.0386 43.4293 37.3093 43.0388 38.1548 42.7093C39.2747 42.2747 40.0748 41.7548 40.9148 40.9148C41.7116 40.1404 42.3249 39.1972 42.7093 38.1548C43.0388 37.3093 43.4293 36.0386 43.536 33.6986C43.6508 31.1679 43.6761 30.408 43.6761 24C43.6761 17.592 43.6508 16.832 43.536 14.3013C43.4293 11.9613 43.0388 10.6907 42.7093 9.84532C42.2747 8.72533 41.7548 7.92532 40.9148 7.08532C40.0748 6.24668 39.2747 5.72533 38.1548 5.29067C37.3093 4.96132 36.0386 4.57067 33.6986 4.464ZM20.9356 31.3983C21.9072 31.8009 22.9484 32.0079 24 32.0079C26.124 32.0079 28.1607 31.1642 29.6625 29.6625C31.1644 28.1607 32.0081 26.1238 32.0081 24C32.0081 21.8762 31.1644 19.8393 29.6625 18.3375C28.1607 16.8357 26.124 15.992 24 15.992C22.9484 15.992 21.9072 16.1991 20.9356 16.6016C19.9639 17.004 19.0812 17.5939 18.3375 18.3375C17.5939 19.0811 17.0041 19.9639 16.6016 20.9354C16.1992 21.907 15.9921 22.9484 15.9921 24C15.9921 25.0516 16.1992 26.093 16.6016 27.0646C17.0041 28.0361 17.5939 28.9189 18.3375 29.6625C19.0812 30.406 19.9639 30.996 20.9356 31.3983ZM15.2772 15.2771C17.5906 12.9637 20.7284 11.664 24 11.664C27.2719 11.664 30.4095 12.9637 32.7229 15.2771C35.0363 17.5906 36.336 20.7284 36.336 24C36.336 27.2716 35.0363 30.4093 32.7229 32.7229C30.4095 35.0363 27.2719 36.336 24 36.336C20.7284 36.336 17.5906 35.0363 15.2772 32.7229C12.9638 30.4093 11.6641 27.2716 11.6641 24C11.6641 20.7284 12.9638 17.5906 15.2772 15.2771ZM39.0713 13.5019C39.6181 12.955 39.9253 12.2134 39.9253 11.44C39.9253 10.6666 39.6181 9.92492 39.0713 9.37807C38.5244 8.83121 37.7828 8.52399 37.0093 8.52399C36.2361 8.52399 35.4943 8.83121 34.9475 9.37807C34.4005 9.92492 34.0933 10.6666 34.0933 11.44C34.0933 12.2134 34.4005 12.955 34.9475 13.5019C35.4943 14.0488 36.2361 14.356 37.0093 14.356C37.7828 14.356 38.5244 14.0488 39.0713 13.5019Z" fill="#FFB320"/>
</g>
</svg>
