<svg width="48" height="39" viewBox="0 0 48 39" fill="none" xmlns="http://www.w3.org/2000/svg">
<g id="medium 1">
<path id="Vector" d="M13.5375 5.56982C6.06098 5.56982 0 11.6727 0 19.2002C0 26.7277 6.06143 32.8305 13.5375 32.8305C21.0136 32.8305 27.075 26.7282 27.075 19.2002C27.075 11.6722 21.0143 5.56982 13.5375 5.56982ZM35.1562 6.36827C31.4179 6.36827 28.3879 12.1147 28.3879 19.2004C28.3879 26.2861 31.4183 32.0329 35.1567 32.0329C38.8951 32.0329 41.9255 26.2865 41.9255 19.2004H41.925C41.925 12.1127 38.895 6.36827 35.1564 6.36827H35.1562ZM45.6192 7.70485C44.3047 7.70485 43.2391 12.8519 43.2391 19.2004C43.2391 25.5489 44.3041 30.696 45.6192 30.696C46.9343 30.696 48 25.5475 48 19.2002C48 12.8515 46.9339 7.70485 45.6194 7.70485H45.6192Z" fill="#FFB320"/>
</g>
</svg>
